<svg width="36" height="48" viewBox="0 0 36 48" fill="none" xmlns="http://www.w3.org/2000/svg">
<path d="M19.207 19.7914C18.867 19.7597 18.5258 19.7423 18.1844 19.739C11.4125 19.739 5.92578 25.2359 5.92578 32.0187C5.92578 34.0421 6.42344 35.9445 7.28828 37.6265C6.83733 36.2576 6.60711 34.8256 6.60625 33.3843C6.60625 26.1929 12.1617 20.3148 19.207 19.7914V19.7914ZM23.1039 42.0773C21.9068 42.8791 20.5921 43.4896 19.207 43.8867C21.1416 43.6485 22.9931 42.9586 24.6117 41.8726C30.2391 38.0898 31.7664 30.5445 28.0234 25.0148C27.8325 24.7387 27.63 24.4707 27.4164 24.2117C30.875 30.2531 29.0688 38.0671 23.1039 42.0773Z" fill="#2AC1BC"/>
<path d="M27.8875 19.718V12.9227C27.8875 12.6383 27.732 12.3992 27.5125 12.2508L35.1875 0.5625H20.4719L18 4.27031L15.5281 0.5625H0.8125L8.48594 12.25C8.26641 12.3984 8.11094 12.6383 8.11094 12.9227V19.718C4.61016 22.5836 2.375 26.9359 2.375 31.8125C2.375 40.4414 9.37109 47.4375 18 47.4375C18.5328 47.4375 19.0578 47.4102 19.5766 47.3578C27.4648 46.568 33.625 39.9102 33.625 31.8125C33.625 26.9359 31.3883 22.5836 27.8875 19.718ZM24.8953 1.34375H29.8391L22.9437 11.6867L20.4719 7.97891L24.8953 1.34375ZM25.4156 15.3945L26.1758 14.2555C26.2172 14.3531 26.2398 14.4594 26.2398 14.5711V17.8672C26.2391 17.9691 26.2182 18.0699 26.1784 18.1638C26.1386 18.2576 26.0806 18.3427 26.0078 18.4141C23.6641 17.0094 20.9313 16.1875 18 16.1875C15.1774 16.188 12.4083 16.958 9.99062 18.4148C9.8441 18.27 9.7607 18.0732 9.75859 17.8672V14.5711C9.75859 14.4594 9.78281 14.3523 9.82266 14.2555L10.5828 15.3953H25.4156V15.3945ZM6.16094 1.34375H11.1047L19.9516 14.6133H15.0078L6.16094 1.34375ZM18 45.0938C10.6648 45.0938 4.71875 39.1477 4.71875 31.8125C4.71875 24.4781 10.6648 18.5312 18 18.5312C25.3336 18.5312 31.2812 24.4781 31.2812 31.8125C31.2812 39.1477 25.3336 45.0938 18 45.0938Z" fill="#2AC1BC"/>
<path d="M19.7455 37.443V23.2188H16.7424C16.7425 23.5301 16.6813 23.8384 16.5622 24.1261C16.4431 24.4137 16.2685 24.6751 16.0484 24.8953C15.8283 25.1155 15.567 25.2902 15.2793 25.4093C14.9917 25.5285 14.6834 25.5898 14.3721 25.5898V28.5531C14.5861 28.5531 16.2041 28.4312 16.7424 28.2156V37.443H14.3721V40.4062H22.1158V37.443H19.7455Z" fill="#2AC1BC"/>
</svg>
