<svg width="36" height="48" viewBox="0 0 36 48" fill="none" xmlns="http://www.w3.org/2000/svg">
<path d="M27.8875 19.7195V12.925C27.8855 12.7906 27.8502 12.6588 27.7848 12.5414C27.7193 12.424 27.6258 12.3247 27.5125 12.2523L35.1875 0.5625H20.4719L18 4.27109L15.5281 0.5625H0.8125L8.48594 12.2508C8.37267 12.3231 8.27912 12.4225 8.21368 12.5399C8.14823 12.6573 8.11293 12.789 8.11094 12.9234V19.718C4.61016 22.5844 2.375 26.9367 2.375 31.8133C2.375 40.4422 9.37109 47.4375 18 47.4375C18.5328 47.4375 19.0578 47.4102 19.5766 47.3578C27.4648 46.5687 33.625 39.9109 33.625 31.8133C33.625 26.9367 31.3883 22.5844 27.8875 19.7195V19.7195ZM24.8953 1.34375H29.8391L22.9437 11.6875L20.4719 7.97969L24.8953 1.34375ZM25.4156 15.3961L26.1758 14.2562C26.2172 14.3539 26.2398 14.4594 26.2398 14.5719V17.868C26.2393 17.9698 26.2185 18.0706 26.1786 18.1643C26.1388 18.2581 26.0807 18.3429 26.0078 18.4141C23.6641 17.0102 20.9313 16.1875 18 16.1875C15.1772 16.1878 12.408 16.9582 9.99062 18.4156C9.84424 18.2707 9.76087 18.0739 9.75859 17.868V14.5719C9.75859 14.4586 9.78281 14.3523 9.82266 14.2562L10.5828 15.3961H25.4156ZM6.16094 1.34375H11.1047L19.9516 14.6148H15.0078L6.16094 1.34375ZM18 45.0945C10.6648 45.0945 4.71875 39.1484 4.71875 31.8133C4.71875 24.4781 10.6648 18.532 18 18.532C25.3336 18.532 31.2812 24.4781 31.2812 31.8133C31.2812 39.1484 25.3336 45.0945 18 45.0945Z" fill="#2AC1BC"/>
<path d="M18.1844 19.7407C11.4141 19.7407 5.92578 25.2384 5.92578 32.0196C5.92578 34.0431 6.42344 35.9454 7.28828 37.629C6.83848 36.2588 6.6088 34.8259 6.60781 33.3837C6.60781 26.1938 12.1617 20.3173 19.207 19.7931C18.867 19.7614 18.5258 19.7439 18.1844 19.7407V19.7407ZM23.1039 42.0782C21.9076 42.8816 20.5927 43.4921 19.207 43.8876C21.142 43.6509 22.9937 42.9608 24.6117 41.8735C30.2391 38.0907 31.7664 30.5454 28.025 25.0173C27.8332 24.741 27.6307 24.4723 27.418 24.2118C30.875 30.2556 29.0688 38.0681 23.1039 42.0782Z" fill="#2AC1BC"/>
<path d="M23.3711 35.0694C23.3711 34.0499 23.0938 33.1819 22.5391 32.4624C21.9836 31.7428 21.243 31.2795 20.3164 31.0733C21.8672 30.1928 22.6438 29.0139 22.6438 27.5374C22.6438 26.4959 22.2648 25.5639 21.5078 24.7366C20.5891 23.7249 19.368 23.2209 17.8461 23.2209C16.9562 23.2209 16.1531 23.3952 15.4367 23.7436C14.7187 24.0913 14.1602 24.5702 13.7602 25.1788C13.3594 25.7866 13.0602 26.5999 12.8617 27.6186L15.7172 28.1233C15.7984 27.3881 16.0266 26.8303 16.4016 26.4467C16.5755 26.2623 16.7859 26.1161 17.0194 26.0174C17.2529 25.9187 17.5043 25.8696 17.7578 25.8733C18.2945 25.8733 18.725 26.042 19.0484 26.3788C19.3719 26.7147 19.5336 27.1663 19.5336 27.7327C19.5336 28.3991 19.3125 28.9327 18.8711 29.3342C18.4305 29.7366 17.7898 29.9264 16.9516 29.9038L16.6094 32.5327C17.1609 32.3717 17.6352 32.2913 18.0328 32.2913C18.6352 32.2913 19.1461 32.528 19.5656 33.003C19.9852 33.4764 20.1953 34.1202 20.1953 34.9311C20.1953 35.7897 19.9766 36.4702 19.5383 36.9756C19.1 37.4803 18.5617 37.7334 17.9227 37.7334C17.3266 37.7334 16.8195 37.5217 16.4008 37.1014C15.982 36.6811 15.725 36.0717 15.6289 35.2749L12.6289 35.6545C12.7836 37.0702 13.3422 38.2155 14.3055 39.0928C15.2687 39.9686 16.482 40.4077 17.9453 40.4077C19.4891 40.4077 20.7789 39.8866 21.8164 38.8459C22.8531 37.8053 23.3711 36.5467 23.3711 35.0694" fill="#2AC1BC"/>
</svg>
