<svg width="36" height="48" viewBox="0 0 36 48" fill="none" xmlns="http://www.w3.org/2000/svg">
<path d="M27.8875 19.718V12.9227C27.8875 12.6383 27.732 12.3992 27.5125 12.2508L35.1875 0.5625H20.4719L18 4.27031L15.5281 0.5625H0.8125L8.48594 12.25C8.26641 12.3984 8.11094 12.6383 8.11094 12.9227V19.718C4.61016 22.5836 2.375 26.9359 2.375 31.8125C2.375 40.4414 9.37109 47.4375 18 47.4375C18.5328 47.4375 19.0578 47.4102 19.5766 47.3578C27.4648 46.568 33.625 39.9102 33.625 31.8125C33.625 26.9359 31.3883 22.5836 27.8875 19.718ZM24.8953 1.34375H29.8391L22.9437 11.6867L20.4719 7.97891L24.8953 1.34375ZM25.4156 15.3945L26.1758 14.2555C26.2172 14.3531 26.2398 14.4594 26.2398 14.5711V17.8672C26.2391 17.9691 26.2182 18.0699 26.1784 18.1638C26.1386 18.2576 26.0806 18.3427 26.0078 18.4141C23.6641 17.0094 20.9313 16.1875 18 16.1875C15.1774 16.188 12.4083 16.958 9.99062 18.4148C9.8441 18.27 9.7607 18.0732 9.75859 17.8672V14.5711C9.75859 14.4594 9.78281 14.3523 9.82266 14.2555L10.5828 15.3953H25.4156V15.3945ZM6.16094 1.34375H11.1047L19.9516 14.6133H15.0078L6.16094 1.34375ZM18 45.0938C10.6648 45.0938 4.71875 39.1477 4.71875 31.8125C4.71875 24.4781 10.6648 18.5312 18 18.5312C25.3336 18.5312 31.2812 24.4781 31.2812 31.8125C31.2812 39.1477 25.3336 45.0938 18 45.0938Z" fill="#2AC1BC"/>
<path d="M18.1844 19.739C11.4141 19.739 5.92578 25.2359 5.92578 32.0187C5.92578 34.0421 6.42344 35.9445 7.28828 37.6265C6.83837 36.2568 6.60869 34.8244 6.60781 33.3828C6.60781 26.1929 12.1617 20.3164 19.207 19.7914C18.867 19.7597 18.5258 19.7422 18.1844 19.739V19.739ZM23.1039 42.0773C21.9069 42.8794 20.5922 43.4899 19.207 43.8867C21.1416 43.6485 22.9931 42.9586 24.6117 41.8726C30.2391 38.0898 31.7664 30.5445 28.0234 25.0164C27.8328 24.7351 27.6266 24.471 27.4164 24.2109C30.875 30.2546 29.0703 38.0671 23.1039 42.0773" fill="#2AC1BC"/>
<path d="M23.0372 37.4429H15.9247V35.6656C15.9249 35.0369 16.1747 34.4341 16.6191 33.9895C17.0636 33.5449 17.6664 33.2949 18.295 33.2945C18.9177 33.2947 19.5342 33.1722 20.1095 32.9341C20.6848 32.6959 21.2076 32.3467 21.6479 31.9065C22.0882 31.4663 22.4374 30.9436 22.6757 30.3683C22.914 29.7931 23.0365 29.1765 23.0364 28.5539C23.0364 26.2437 21.8646 23.2195 17.7028 23.2195C14.9302 23.2195 12.9614 25.325 12.9614 28.5539H15.9247C15.9247 27.3343 16.8442 26.2085 18.0356 26.2085C19.4544 26.2085 20.0731 27.1421 20.0731 27.9617C20.0729 28.5902 19.8231 29.1929 19.3786 29.6372C18.9341 30.0816 18.3313 30.3312 17.7028 30.3312C17.0801 30.3312 16.4635 30.4539 15.8882 30.6922C15.3129 30.9305 14.7902 31.2798 14.3499 31.7202C13.9096 32.1606 13.5604 32.6833 13.3221 33.2587C13.0839 33.834 12.9613 34.4507 12.9614 35.0734V40.4062H23.0364V37.4429H23.0372Z" fill="#2AC1BC"/>
</svg>
